<?xml version="1.0" standalone="no"?>
<!DOCTYPE svg PUBLIC "-//W3C//DTD SVG 20010904//EN"
 "http://www.w3.org/TR/2001/REC-SVG-20010904/DTD/svg10.dtd">
<svg version="1.0" xmlns="http://www.w3.org/2000/svg"
 width="1184.000000pt" height="458.000000pt" viewBox="0 0 1184.000000 458.000000"
 preserveAspectRatio="xMidYMid meet">

<g transform="translate(0.000000,458.000000) scale(0.100000,-0.100000)"
fill="#000000" stroke="none">
<path d="M1037 4553 c-4 -3 -7 -258 -7 -565 l0 -558 -515 0 -515 0 0 -1700 0
-1700 520 0 520 0 0 560 0 560 530 0 530 0 0 -557 -1 -558 561 -3 560 -2 -2
2262 -3 2263 -1086 3 c-597 1 -1089 -1 -1092 -5z m1063 -1718 l0 -575 -530 0
-530 0 0 575 0 575 530 0 530 0 0 -575z"/>
<path d="M4217 4553 c-4 -3 -7 -1023 -7 -2265 l0 -2258 1175 0 1175 0 0 560 0
560 565 0 565 0 0 1140 0 1140 -565 0 -565 0 -2 563 -3 562 -1166 3 c-641 1
-1169 -1 -1172 -5z m2343 -2268 l0 -1125 -600 0 -600 0 0 1125 0 1125 600 0
600 0 0 -1125z"/>
<path d="M8790 2295 l0 -2265 605 0 605 0 0 105 0 105 90 0 90 0 0 110 0 110
-90 0 -90 0 0 195 0 195 90 0 91 0 -3 117 -3 116 -87 -2 -88 -2 0 200 0 201
90 0 90 0 0 110 0 110 -90 0 -90 0 0 270 0 270 395 0 395 0 0 -431 0 -431 -95
7 -95 7 0 -116 0 -116 95 0 95 0 0 -195 0 -195 -95 0 -96 0 3 -111 3 -112 93
2 92 2 0 -170 0 -171 -95 0 -95 0 0 -90 0 -90 600 0 600 0 0 1115 0 1115 -500
0 -500 0 0 575 0 575 500 0 500 0 0 575 0 575 -502 -2 -503 -3 -3 -562 -2
-563 -395 0 -395 0 0 565 0 565 -605 0 -605 0 0 -2265z"/>
<path d="M10370 1590 l0 -110 100 0 100 0 1 33 c1 17 1 66 1 107 l1 75 -102 3
-101 3 0 -111z"/>
<path d="M10186 1382 c-3 -3 -6 -54 -6 -114 l0 -108 100 0 101 0 -3 113 -3
112 -92 2 c-50 0 -94 -2 -97 -5z"/>
<path d="M10468 1082 l-98 -3 0 -114 0 -115 99 0 c55 0 101 3 103 8 2 4 1 57
-2 117 l-5 110 -97 -3z"/>
<path d="M10180 660 l0 -110 100 0 100 0 0 110 0 110 -100 0 -100 0 0 -110z"/>
<path d="M10370 350 l0 -110 100 0 100 0 0 110 0 110 -100 0 -100 0 0 -110z"/>
</g>
</svg>
